<svg xmlns="http://www.w3.org/2000/svg" xml:space="preserve" id="Layer_1" x="0" y="0" style="enable-background:new 0 0 94.2 92" version="1.1" viewBox="0 0 94.2 92"><style>.st0{fill:#ed1c24}</style><path d="M47.1 8.2c5 0 9.1 4.1 9.1 9.1s-4.1 9.1-9.1 9.1-9.1-4.1-9.1-9.1c0-5.1 4.1-9.1 9.1-9.1zM67.5 26.4H26.7c-1.6 0-2.8 1.3-2.8 2.8v4.5c0 1.6 1.3 2.8 2.8 2.8h.8v45.4h-.8c-1.6 0-2.8 1.3-2.8 2.8v4.5c0 1.6 1.3 2.8 2.8 2.8h40.8c1.6 0 2.8-1.3 2.8-2.8v-4.5c0-1.5-1.3-2.8-2.8-2.8h-.8V36.5h.8c1.6 0 2.8-1.3 2.8-2.8v-4.5c0-1.5-1.3-2.8-2.8-2.8zM33.7 36.5h13.2L33.7 49.7V36.5zm26.8 45.4H47l13.5-13.5v13.5zm0-28.7L33.7 80V64.9l26.8-26.8v15.1z" class="st0"/><path d="M47.1 0C21.1 0 0 21.1 0 47.1c0 15.4 7.4 29.1 18.9 37.7v-.1c0-1.5.4-2.9 1.2-4.1C10.3 72.7 4 60.6 4 47.1 4 23.3 23.3 4 47.1 4s43.1 19.3 43.1 43.1c0 13.5-6.3 25.6-16.1 33.5.7 1.2 1.2 2.6 1.2 4.1v.1c11.5-8.6 18.9-22.3 18.9-37.7C94.2 21.1 73.1 0 47.1 0z" class="st0"/></svg>