<svg xmlns="http://www.w3.org/2000/svg" xml:space="preserve" style="enable-background:new 0 0 57 97.7" viewBox="0 0 57 97.7"><path d="M52 15.8C51.6 10.4 51.4 5 49.5.6c-.8 0-1.5 7.3-2.3 10.9-1.5 7.1-3.7 8.3-4.4 8.3-.9-3.9-4.4-4.2-7.8-5.9-1.2-.6-2.3-1.1-3.6-1.2-.7-.1-1.3.1-2 .1s-1.3-.2-2-.1c-1.3.1-2.4.6-3.6 1.2-3.4 1.6-6.9 2-7.8 5.9-.7 0-3-1.1-4.4-8.3C10.8 7.9 10 .6 9.3.6 7.4 5 7.2 10.4 6.8 15.8 5.9 39.4.9 52.1.9 63c0 26.1 11.7 35.3 28.5 35.3S57.9 89.1 57.9 63c0-10.9-5-23.6-5.9-47.2zm-16.7 9.7c-2.8 1.2-5.4-.7-5.9-.7h-.2c-.5 0-3.1 1.9-5.9.7-.8-3.6 2.4-4 5.9-3.9 3.7-.1 6.9.4 6.1 3.9z"/></svg>